PathFileType	4	(X/Y/Z)	RBDS012static.trc
DataRate	CameraRate	NumFrames	NumMarkers	Units	OrigDataRate	OrigDataStartFrame	OrigNumFrames
150.000000	150.000000	4	48	mm	150.000000	56	150
Frame#	Time	L.Ankle			L.Ankle.Medial			L.ASIS			L.GTR			L.Heel.Bottom			L.Heel.Lateral			L.Heel.Top			L.HF			L.Iliac.Crest			L.Knee			L.Knee.Medial			L.MT1			L.MT2			L.MT5			L.PSIS			L.Shank.Bottom.Lateral			L.Shank.Bottom.Medial			L.Shank.Top.Lateral			L.Shank.Top.Medial			L.Thigh.Bottom.Lateral			L.Thigh.Bottom.Medial			L.Thigh.Top.Lateral			L.Thigh.Top.Medial			L.TT			R.Ankle			R.Ankle.Medial			R.ASIS			R.GTR			R.Heel.Bottom			R.Heel.Lateral			R.Heel.Top			R.HF			R.Iliac.Crest			R.Knee			R.Knee.Medial			R.MT1			R.MT2			R.MT5			R.PSIS			R.Shank.Bottom.Lateral			R.Shank.Bottom.Medial			R.Shank.Top.Lateral			R.Shank.Top.Medial			R.Thigh.Bottom.Lateral			R.Thigh.Bottom.Medial			R.Thigh.Top.Lateral			R.Thigh.Top.Medial			R.TT			
		X1	Y1	Z1	X2	Y2	Z2	X3	Y3	Z3	X4	Y4	Z4	X5	Y5	Z5	X6	Y6	Z6	X7	Y7	Z7	X8	Y8	Z8	X9	Y9	Z9	X10	Y10	Z10	X11	Y11	Z11	X12	Y12	Z12	X13	Y13	Z13	X14	Y14	Z14	X15	Y15	Z15	X16	Y16	Z16	X17	Y17	Z17	X18	Y18	Z18	X19	Y19	Z19	X20	Y20	Z20	X21	Y21	Z21	X22	Y22	Z22	X23	Y23	Z23	X24	Y24	Z24	X25	Y25	Z25	X26	Y26	Z26	X27	Y27	Z27	X28	Y28	Z28	X29	Y29	Z29	X30	Y30	Z30	X31	Y31	Z31	X32	Y32	Z32	X33	Y33	Z33	X34	Y34	Z34	X35	Y35	Z35	X36	Y36	Z36	X37	Y37	Z37	X38	Y38	Z38	X39	Y39	Z39	X40	Y40	Z40	X41	Y41	Z41	X42	Y42	Z42	X43	Y43	Z43	X44	Y44	Z44	X45	Y45	Z45	X46	Y46	Z46	X47	Y47	Z47	X48	Y48	Z48	

57	0.3733333333333334	715.428955078125	107.1797332763672	1041.932983398438	743.0335083007813	120.0782165527344	1125.989501953125	863.4960327148438	1038.979736328125	1083.134643554688	780.8231811523438	965.166748046875	1042.840576171875	642.4838256835938	43.11679458618164	1086.01025390625	673.7694091796875	55.54399490356445	1040.081420898438	653.0214233398438	92.91316223144531	1084.977416992188	755.6756591796875	482.6467895507813	1046.1064453125	805.5582275390625	1105.4619140625	1050.963012695313	756.6878662109375	556.840087890625	1047.737426757813	765.6170043945313	531.7938842773438	1177.804077148438	865.3267822265625	56.72132873535156	1128.941772460938	878.631103515625	66.43560791015625	1081.945556640625	841.7958374023438	51.37100982666016	1009.941650390625	691.9528198242188	1079.820678710938	1174.518798828125	724.751708984375	187.1714630126953	1037.3408203125	680.8584594726563	187.9548034667969	1070.925903320313	717.9899291992188	267.16455078125	1028.400268554688	676.9423828125	268.6370239257813	1063.169677734375	789.425537109375	656.1434936523438	1030.030883789063	723.1842651367188	654.8779907226563	1059.877075195313	779.2909545898438	766.0512084960938	1022.307678222656	720.3087768554688	765.4342651367188	1057.070068359375	810.77099609375	464.5220336914063	1091.8349609375	722.1262817382813	110.1532592773438	1406.065185546875	749.7474975585938	123.5595397949219	1324.507446289063	863.7973022460938	1051.130981445313	1365.186401367188	792.3648681640625	961.7783813476563	1408.103881835938	642.6631469726563	44.92354965209961	1373.106201171875	665.1519775390625	62.58385467529297	1408.7568359375	655.184326171875	94.61375427246094	1370.5546875	775.3092041015625	480.4983825683594	1400.041259765625	808.4603881835938	1108.9853515625	1390.957885742188	773.5008544921875	556.2918090820313	1397.81201171875	783.4893798828125	537.9422607421875	1268.282836914063	864.9029541015625	58.59803771972656	1323.057006835938	879.7752075195313	67.07240295410156	1373.536010742188	841.26611328125	52.92278671264648	1441.992919921875	693.2072143554688	1078.726318359375	1278.32275390625	723.3031616210938	192.7677459716797	1408.937255859375	684.4327392578125	200.9503021240234	1377.20703125	729.1189575195313	277.2396240234375	1420.257568359375	687.004150390625	281.1975402832031	1387.88134765625	774.2279663085938	645.19384765625	1411.2158203125	716.49853515625	644.7615966796875	1364.921020507813	765.5776977539063	754.656005859375	1415.677978515625	713.0256958007813	755.137451171875	1370.437255859375	828.6021728515625	466.1567687988281	1353.925659179688	
58	0.38	715.4188842773438	107.1763000488281	1041.939331054688	743.0407104492188	120.1082458496094	1125.992797851563	863.4620361328125	1038.979248046875	1083.13330078125	780.7993774414063	965.1731567382813	1042.84619140625	642.4856567382813	43.12003326416016	1086.011596679688	673.7674560546875	55.54918670654297	1040.07763671875	653.0164184570313	92.9139404296875	1084.979125976563	755.660400390625	482.6410827636719	1046.112670898438	805.5240478515625	1105.469604492188	1050.96435546875	756.668212890625	556.8323364257813	1047.740356445313	765.6069946289063	531.8048706054688	1177.81005859375	865.3226928710938	56.70308685302734	1128.939575195313	878.6257934570313	66.43830108642578	1081.950317382813	841.7963256835938	51.36859130859375	1009.948547363281	691.9212646484375	1079.820068359375	1174.51171875	724.74169921875	187.1702575683594	1037.343017578125	680.8485107421875	187.9657287597656	1070.913330078125	717.9826049804688	267.1639709472656	1028.403930664063	676.944580078125	268.6277465820313	1063.174682617188	789.3955078125	656.150390625	1030.02685546875	723.1553955078125	654.8850708007813	1059.871704101563	779.265869140625	766.0497436523438	1022.307678222656	720.2734985351563	765.439697265625	1057.079467773438	810.7556762695313	464.52001953125	1091.824462890625	722.119873046875	110.1614227294922	1406.0703125	749.7423095703125	123.5456161499023	1324.5146484375	863.7862548828125	1051.135620117188	1365.171142578125	792.364013671875	961.77587890625	1408.099853515625	642.6627807617188	44.92299270629883	1373.1083984375	665.15771484375	62.58307266235352	1408.766845703125	655.1832885742188	94.62311553955078	1370.553955078125	775.3060913085938	480.5008544921875	1400.041015625	808.4447631835938	1108.985229492188	1390.9599609375	773.493896484375	556.2974243164063	1397.812866210938	783.4893798828125	537.9423828125	1268.27490234375	864.9102783203125	58.59809112548828	1323.052490234375	879.7804565429688	67.07221984863281	1373.5234375	841.2638549804688	52.91074752807617	1441.981567382813	693.1928100585938	1078.718627929688	1278.331909179688	723.30517578125	192.7733917236328	1408.933959960938	684.4324340820313	200.9499816894531	1377.201904296875	729.1068725585938	277.2381591796875	1420.261962890625	687.0042114257813	281.2042236328125	1387.88623046875	774.2225341796875	645.1970825195313	1411.211791992188	716.4801635742188	644.7716064453125	1364.913208007813	765.5663452148438	754.6533813476563	1415.677734375	713.0150146484375	755.1389770507813	1370.436645507813	828.593017578125	466.1627502441406	1353.921142578125	
59	0.3866666666666667	715.4209594726563	107.1738433837891	1041.92529296875	743.0369262695313	120.1139373779297	1125.985107421875	863.4255981445313	1038.988403320313	1083.125610351563	780.765869140625	965.1767578125	1042.839599609375	642.486328125	43.11489486694336	1086.011352539063	673.7642822265625	55.5465087890625	1040.064086914063	653.0194702148438	92.92210388183594	1084.973876953125	755.627685546875	482.6385192871094	1046.099975585938	805.4976196289063	1105.479248046875	1050.973876953125	756.6460571289063	556.8448486328125	1047.719116210938	765.5886840820313	531.8095703125	1177.814208984375	865.3145751953125	56.71162796020508	1128.927612304688	878.61328125	66.43679809570313	1081.945068359375	841.79052734375	51.38019180297852	1009.942016601563	691.906982421875	1079.817504882813	1174.531982421875	724.7337036132813	187.1687622070313	1037.35009765625	680.8458251953125	187.9577789306641	1070.916748046875	717.9771118164063	267.1650390625	1028.400512695313	676.93359375	268.6264343261719	1063.172485351563	789.3773803710938	656.1472778320313	1030.0224609375	723.13232421875	654.885009765625	1059.87109375	779.2476806640625	766.056396484375	1022.311279296875	720.2469482421875	765.4307250976563	1057.084228515625	810.7460327148438	464.5247802734375	1091.814697265625	722.1200561523438	110.1702423095703	1406.080688476563	749.7299194335938	123.5585098266602	1324.511596679688	863.7692260742188	1051.142456054688	1365.170166015625	792.3502197265625	961.781494140625	1408.09814453125	642.6660766601563	44.91458511352539	1373.108276367188	665.1495971679688	62.58156585693359	1408.757202148438	655.180419921875	94.62926483154297	1370.557250976563	775.2921752929688	480.510986328125	1400.050048828125	808.41650390625	1108.988891601563	1390.954345703125	773.48095703125	556.2896118164063	1397.806396484375	783.4571533203125	537.9358520507813	1268.278686523438	864.8978881835938	58.60189819335938	1323.052734375	879.77392578125	67.07062530517578	1373.53173828125	841.2601318359375	52.91904449462891	1441.983276367188	693.1673583984375	1078.723999023438	1278.33544921875	723.2986450195313	192.7710418701172	1408.939819335938	684.4275512695313	200.9500427246094	1377.211059570313	729.1131591796875	277.2386779785156	1420.261108398438	687.0020141601563	281.1968994140625	1387.880249023438	774.2083740234375	645.1962890625	1411.218017578125	716.464111328125	644.763671875	1364.92578125	765.5435791015625	754.6614990234375	1415.6767578125	713.000732421875	755.1349487304688	1370.43603515625	828.5856323242188	466.1610717773438	1353.920532226563	
60	0.3933333333333334	715.4086303710938	107.1692657470703	1041.925537109375	743.03857421875	120.0907211303711	1125.992553710938	863.3983154296875	1038.992309570313	1083.126220703125	780.7265625	965.1651000976563	1042.845581054688	642.485107421875	43.11743927001953	1086.015502929688	673.7677001953125	55.54241561889648	1040.072875976563	653.02001953125	92.92102813720703	1084.980224609375	755.608154296875	482.635986328125	1046.104248046875	805.4751586914063	1105.4931640625	1050.9716796875	756.6052856445313	556.8414916992188	1047.720458984375	765.5783081054688	531.8131103515625	1177.817504882813	865.31201171875	56.7056770324707	1128.943359375	878.6251831054688	66.43501281738281	1081.947875976563	841.7835083007813	51.37335586547852	1009.949157714844	691.8839721679688	1079.820190429688	1174.543090820313	724.7302856445313	187.1648864746094	1037.345458984375	680.8406982421875	187.9499359130859	1070.930541992188	717.9688720703125	267.1546020507813	1028.40576171875	676.915771484375	268.6300964355469	1063.177978515625	789.351806640625	656.1447143554688	1030.023315429688	723.1134643554688	654.8805541992188	1059.877685546875	779.215576171875	766.0440673828125	1022.311645507813	720.2200317382813	765.4432373046875	1057.092041015625	810.7314453125	464.5247192382813	1091.814697265625	722.1300659179688	110.1531143188477	1406.080322265625	749.7323608398438	123.5531311035156	1324.507446289063	863.75341796875	1051.145141601563	1365.166381835938	792.3352661132813	961.77783203125	1408.096801757813	642.654052734375	44.92181396484375	1373.110595703125	665.1552734375	62.57815933227539	1408.763671875	655.1808471679688	94.61228942871094	1370.562377929688	775.2780151367188	480.4948120117188	1400.052368164063	808.3999633789063	1108.980102539063	1390.96240234375	773.4671630859375	556.2965087890625	1397.817504882813	783.4325561523438	537.9412841796875	1268.271484375	864.9016723632813	58.60187149047852	1323.052124023438	879.76513671875	67.07172393798828	1373.519775390625	841.2540283203125	52.91098403930664	1441.988159179688	693.1611938476563	1078.726806640625	1278.355346679688	723.29443359375	192.7726440429688	1408.938720703125	684.4262084960938	200.9506683349609	1377.20654296875	729.0977172851563	277.2384338378906	1420.26318359375	686.99072265625	281.1933898925781	1387.881958007813	774.1891479492188	645.1945190429688	1411.204711914063	716.4458618164063	644.762939453125	1364.917114257813	765.528076171875	754.65966796875	1415.674682617188	712.9840087890625	755.1298217773438	1370.435424804688	828.56884765625	466.1594848632813	1353.9208984375	
